<svg width="122" height="40" fill="none" xmlns="http://www.w3.org/2000/svg"><g clip-path="url(#clip0_101_229)"><path d="M45.747 9.597c0-5.17 4.249-8.523 8.983-8.523 3.133 0 5.537 1.538 7.102 3.842l-4.005 2.517c-.628-.98-1.949-1.573-3.065-1.573-2.368 0-3.76 1.71-3.76 3.737s1.392 3.842 3.76 3.842c1.113 0 2.437-.594 3.065-1.573l4.005 2.517c-1.565 2.304-3.97 3.841-7.102 3.841-4.734 0-8.983-3.456-8.983-8.627zm19.01.069c0-5.171 4.177-8.595 8.81-8.595 4.633 0 8.843 3.424 8.843 8.595 0 5.17-4.213 8.558-8.843 8.558s-8.81-3.424-8.81-8.558zm12.395 0c0-2.236-1.6-3.81-3.585-3.81-1.984 0-3.585 1.574-3.585 3.81 0 2.236 1.6 3.773 3.585 3.773 1.985 0 3.585-1.537 3.585-3.773zm8.182-.069c0-5.17 4.249-8.523 8.983-8.523 3.133 0 5.537 1.538 7.102 3.842l-4.005 2.517c-.628-.98-1.949-1.573-3.065-1.573-2.368 0-3.76 1.71-3.76 3.737s1.392 3.842 3.76 3.842c1.113 0 2.437-.594 3.065-1.573l4.005 2.517c-1.565 2.304-3.97 3.841-7.102 3.841-4.734 0-8.983-3.456-8.983-8.627zm19.014.069c0-5.171 4.177-8.595 8.81-8.595 4.633 0 8.843 3.424 8.843 8.595 0 5.17-4.213 8.558-8.843 8.558s-8.81-3.424-8.81-8.558zm12.395 0c0-2.236-1.601-3.81-3.585-3.81-1.985 0-3.585 1.574-3.585 3.81 0 2.236 1.6 3.773 3.585 3.773 1.984 0 3.585-1.537 3.585-3.773zM71.4 30.292v8.627h-5.27v-7.762c0-2.17-.89-3.088-2.275-3.088-1.526 0-2.635 1.028-2.635 3.366v7.485h-5.27v-7.763c0-2.17-.86-3.088-2.275-3.088-1.552 0-2.661 1.028-2.661 3.366v7.485h-5.27V23.838h5.02v1.586c1.135-1.224 2.716-1.838 4.492-1.838 2.053 0 3.8.751 4.854 2.367 1.191-1.502 3.052-2.367 5.212-2.367 3.494 0 6.074 2.03 6.074 6.705h.004zm19.557-6.453v15.08h-5.02v-1.5c-1 1.197-2.47 1.752-4.438 1.752-4.077 0-7.379-3.006-7.379-7.818 0-4.811 3.3-7.762 7.379-7.762 1.747 0 3.162.5 4.187 1.557v-1.31h5.27zm-5.186 7.514c0-2.282-1.386-3.561-3.163-3.561-1.776 0-3.162 1.28-3.162 3.561 0 2.282 1.386 3.617 3.162 3.617 1.777 0 3.163-1.309 3.163-3.617zm18.247 6.953c-.914.584-2.274.862-3.66.862-3.855 0-6.074-1.894-6.074-5.758V20.415h5.27v3.424h3.414v4.508h-3.413v5.007c0 1.113.611 1.727 1.552 1.727.582 0 1.164-.167 1.607-.474l1.304 3.702v-.003zm14.128-4.479l2.745 2.892c-1.415 1.613-3.523 2.449-6.38 2.449-5.351 0-8.82-3.31-8.82-7.818 0-4.508 3.55-7.763 8.319-7.763 4.327 0 7.958 2.755 7.988 7.681l-10.733 2.06c.582 1.224 1.747 1.808 3.409 1.808 1.471 0 2.44-.418 3.468-1.309h.004zm-7.295-3.199l6.1-1.198c-.361-1.253-1.441-2.085-2.911-2.085-1.803 0-3.023 1.142-3.189 3.283z" fill="#EB6100"/><path d="M13.531 13.031a4.579 4.579 0 01-6.468.545 4.615 4.615 0 01-.543-6.49 4.579 4.579 0 016.468-.544c.416.352.751.767 1.008 1.217l4.705-2.725a9.984 9.984 0 00-2.206-2.66C12.269-1.212 5.941-.677 2.369 3.567-1.207 7.812-.673 14.161 3.556 17.745a10.005 10.005 0 0014.13-1.192c.39-.463.725-.956 1.018-1.466L14 12.363a4.78 4.78 0 01-.466.672l-.003-.003z" fill="#FDD000"/><path d="M18.704 5.034L14 7.759a4.608 4.608 0 010 4.6l4.704 2.725a10.087 10.087 0 000-10.05z" fill="#F6AB00"/><path d="M38.511 5.034a9.982 9.982 0 00-2.206-2.66 10.005 10.005 0 00-14.13 1.19c-3.571 4.244-3.041 10.593 1.188 14.177a10.005 10.005 0 0014.13-1.191c.39-.464.725-.957 1.018-1.466a10.088 10.088 0 000-10.05zm-5.17 7.997a4.579 4.579 0 01-6.467.545 4.615 4.615 0 01-.543-6.49 4.579 4.579 0 016.467-.544 4.52 4.52 0 011.009 1.217 4.608 4.608 0 010 4.6 4.767 4.767 0 01-.465.672z" fill="#F39800"/><path d="M26.321 26.97a4.579 4.579 0 016.468-.546 4.615 4.615 0 01.543 6.49 4.579 4.579 0 01-6.468.545 4.531 4.531 0 01-1.008-1.218l-4.705 2.726a9.981 9.981 0 002.206 2.66 10.005 10.005 0 0014.13-1.192c3.572-4.243 3.042-10.592-1.188-14.176a10.005 10.005 0 00-14.13 1.191c-.39.464-.725.957-1.018 1.466l4.705 2.726a4.76 4.76 0 01.465-.673z" fill="#FDD000"/><path d="M21.151 34.967l4.705-2.726a4.607 4.607 0 010-4.6l-4.705-2.725a10.088 10.088 0 000 10.05z" fill="#F6AB00"/><path d="M16.489 22.256a10.005 10.005 0 00-14.13 1.191c-.39.463-.725.956-1.018 1.466a10.087 10.087 0 000 10.05 9.984 9.984 0 002.206 2.66 10.005 10.005 0 0014.13-1.19c3.572-4.244 3.041-10.593-1.188-14.177zm-2.964 10.657a4.579 4.579 0 01-6.468.545 4.531 4.531 0 01-1.008-1.217 4.608 4.608 0 010-4.6 4.81 4.81 0 01.465-.672 4.579 4.579 0 016.468-.545 4.615 4.615 0 01.543 6.49z" fill="#F39800"/></g><defs><clipPath id="clip0_101_229"><path fill="#fff" d="M0 0h122v40H0z"/></clipPath></defs></svg>