<svg width="122" height="40" viewBox="0 0 122 40" fill="none" xmlns="http://www.w3.org/2000/svg">
<path d="M46 9.52293C46 4.35237 50.249 1 54.9827 1C58.1157 1 60.52 2.53746 62.0849 4.84201L58.08 7.35874C57.452 6.37947 56.1312 5.78538 55.0152 5.78538C52.6467 5.78538 51.2543 7.49584 51.2543 9.52293C51.2543 11.55 52.6467 13.3649 55.0152 13.3649C56.1279 13.3649 57.452 12.7708 58.08 11.7916L62.0849 14.3083C60.52 16.6129 58.1157 18.1503 54.9827 18.1503C50.249 18.1503 46 14.6935 46 9.52293Z" fill="#EB6100"/>
<path d="M64.7559 9.66542C64.7559 4.49487 68.9333 1.07068 73.5661 1.07068C78.199 1.07068 82.4089 4.49487 82.4089 9.66542C82.4089 14.836 78.1957 18.2243 73.5661 18.2243C68.9365 18.2243 64.7559 14.8001 64.7559 9.66542ZM77.1514 9.66542C77.1514 7.42942 75.5507 5.85606 73.5661 5.85606C71.5815 5.85606 69.9809 7.42942 69.9809 9.66542C69.9809 11.9014 71.5815 13.4389 73.5661 13.4389C75.5507 13.4389 77.1514 11.9014 77.1514 9.66542Z" fill="#EB6100"/>
<path d="M85.334 9.59678C85.334 4.42623 89.5829 1.07385 94.3167 1.07385C97.4497 1.07385 99.854 2.61131 101.419 4.91586L97.4139 7.43259C96.786 6.45332 95.4651 5.85923 94.3492 5.85923C91.9807 5.85923 90.5883 7.56969 90.5883 9.59678C90.5883 11.6239 91.9807 13.4388 94.3492 13.4388C95.4619 13.4388 96.786 12.8447 97.4139 11.8654L101.419 14.3822C99.854 16.6867 97.4497 18.2242 94.3167 18.2242C89.5829 18.2242 85.334 14.7673 85.334 9.59678Z" fill="#EB6100"/>
<path d="M104.347 9.66542C104.347 4.49487 108.524 1.07068 113.157 1.07068C117.79 1.07068 122 4.49487 122 9.66542C122 14.836 117.787 18.2243 113.157 18.2243C108.527 18.2243 104.347 14.8001 104.347 9.66542ZM116.742 9.66542C116.742 7.42942 115.142 5.85606 113.157 5.85606C111.172 5.85606 109.572 7.42942 109.572 9.66542C109.572 11.9014 111.172 13.4389 113.157 13.4389C115.142 13.4389 116.742 11.9014 116.742 9.66542Z" fill="#EB6100"/>
<path d="M71.3996 30.2922V38.9195H66.1291V31.1572C66.1291 28.9865 65.2409 28.0692 63.855 28.0692C62.3291 28.0692 61.2197 29.0974 61.2197 31.4346V38.9195H55.9491V31.1572C55.9491 28.9865 55.0902 28.0692 53.675 28.0692C52.1231 28.0692 51.0137 29.0974 51.0137 31.4346V38.9195H45.7432V23.8387H50.7632V25.4252C51.8986 24.2011 53.4798 23.5874 55.2562 23.5874C57.3091 23.5874 59.0562 24.3382 60.1103 25.954C61.301 24.4524 63.162 23.5874 65.3222 23.5874C68.8164 23.5874 71.3964 25.6178 71.3964 30.2922H71.3996Z" fill="#EB6100"/>
<path d="M90.9556 23.8388V38.9196H85.9356V37.418C84.9368 38.616 83.4662 39.1709 81.4979 39.1709C77.4214 39.1709 74.1191 36.1646 74.1191 31.3531C74.1191 26.5416 77.4181 23.5907 81.4979 23.5907C83.245 23.5907 84.6602 24.0901 85.685 25.1477V23.8388H90.9556ZM85.7696 31.3531C85.7696 29.0714 84.3837 27.7918 82.6073 27.7918C80.8309 27.7918 79.445 29.0714 79.445 31.3531C79.445 33.6348 80.8309 34.9698 82.6073 34.9698C84.3837 34.9698 85.7696 33.6609 85.7696 31.3531Z" fill="#EB6100"/>
<path d="M104.018 38.3059C103.104 38.8902 101.744 39.1676 100.358 39.1676C96.503 39.1676 94.2842 37.2744 94.2842 33.4095V20.4146H99.5547V23.8387H102.968V28.3467H99.5547V33.354C99.5547 34.4671 100.166 35.0808 101.107 35.0808C101.689 35.0808 102.271 34.9143 102.714 34.6075L104.018 38.3091V38.3059Z" fill="#EB6100"/>
<path d="M118.145 33.8273L120.89 36.7194C119.475 38.332 117.367 39.1676 114.51 39.1676C109.159 39.1676 105.69 35.8577 105.69 31.3498C105.69 26.8418 109.24 23.5874 114.009 23.5874C118.336 23.5874 121.967 26.3424 121.997 31.2682L111.264 33.3279C111.846 34.552 113.011 35.1363 114.673 35.1363C116.144 35.1363 117.113 34.7185 118.141 33.8273H118.145ZM110.85 30.6284L116.951 29.4304C116.589 28.1769 115.509 27.3445 114.039 27.3445C112.236 27.3445 111.016 28.487 110.85 30.6284Z" fill="#EB6100"/>
<path d="M13.5311 13.031C11.8946 14.9733 8.99909 15.2181 7.0633 13.5762C5.12752 11.9343 4.88351 9.02909 6.51998 7.08686C8.15645 5.14464 11.052 4.89982 12.9878 6.54174C13.4042 6.89427 13.7393 7.30883 13.9963 7.7593L18.7008 5.03366C18.1379 4.05439 17.4092 3.14693 16.495 2.3733C12.2688 -1.21083 5.94087 -0.675498 2.36862 3.56801C-1.20689 7.81153 -0.673329 14.1605 3.55612 17.7446C7.78556 21.3287 14.1135 20.7967 17.6857 16.5532C18.0761 16.0896 18.4112 15.5967 18.704 15.0875L13.9996 12.3619C13.8662 12.5936 13.7133 12.8189 13.5344 13.0343L13.5311 13.031Z" fill="#FDD000"/>
<path d="M18.704 5.03345L13.9995 7.75909C14.8096 9.16598 14.8291 10.9254 13.9995 12.3584L18.704 15.084C20.5129 11.9471 20.4706 8.1051 18.704 5.03345Z" fill="#F6AB00"/>
<path d="M38.5108 5.03343C37.948 4.05416 37.2192 3.1467 36.305 2.37308C32.0755 -1.21106 25.7476 -0.678986 22.1754 3.56453C18.6031 7.80804 19.1334 14.157 23.3629 17.7411C27.5923 21.3253 33.9202 20.7932 37.4925 16.5497C37.8829 16.0862 38.218 15.5933 38.5108 15.084C40.3197 11.9471 40.2774 8.10509 38.5108 5.03343ZM33.3411 13.0308C31.7047 14.973 28.8091 15.2179 26.8733 13.576C24.9375 11.934 24.6935 9.02886 26.33 7.08664C27.9665 5.14442 30.862 4.8996 32.7978 6.54151C33.2142 6.89405 33.5493 7.30861 33.8064 7.75908C34.6165 9.16596 34.636 10.9254 33.8064 12.3584C33.673 12.5902 33.5201 12.8154 33.3411 13.0308Z" fill="#F39800"/>
<path d="M26.3201 26.9691C27.9565 25.0269 30.8521 24.7821 32.7879 26.424C34.7237 28.0659 34.9677 30.9711 33.3312 32.9133C31.6947 34.8555 28.7992 35.1003 26.8634 33.4584C26.447 33.1059 26.1119 32.6913 25.8548 32.2409L21.1504 34.9665C21.7132 35.9458 22.442 36.8532 23.3562 37.6269C27.5857 41.211 33.9136 40.6789 37.4858 36.4354C41.0581 32.1919 40.5278 25.843 36.2983 22.2588C32.0689 18.6747 25.741 19.2068 22.1687 23.4503C21.7783 23.9138 21.4432 24.4067 21.1504 24.9159L25.8548 27.6416C25.9882 27.4098 26.1411 27.1846 26.3201 26.9691Z" fill="#FDD000"/>
<path d="M21.1504 34.9665L25.8549 32.2408C25.0448 30.834 25.0253 29.0745 25.8549 27.6415L21.1504 24.9159C19.3415 28.0528 19.3838 31.8948 21.1504 34.9665Z" fill="#F6AB00"/>
<path d="M16.4883 22.2555C12.2589 18.6714 5.93095 19.2035 2.3587 23.447C1.96828 23.9105 1.63318 24.4034 1.34037 24.9126C-0.468527 28.0496 -0.426233 31.8916 1.34037 34.9632C1.90322 35.9425 2.63198 36.8499 3.54619 37.6236C7.77564 41.2077 14.1035 40.6756 17.6758 36.4321C21.2481 32.1886 20.7177 25.8397 16.4883 22.2555ZM13.5244 32.9133C11.888 34.8555 8.99242 35.1003 7.05663 33.4584C6.6402 33.1059 6.30509 32.6913 6.04807 32.2408C5.23797 30.8339 5.21845 29.0745 6.04807 27.6415C6.18146 27.4098 6.33437 27.1845 6.51331 26.9691C8.14978 25.0269 11.0453 24.782 12.9811 26.424C14.9169 28.0659 15.1609 30.971 13.5244 32.9133Z" fill="#F39800"/>
</svg>
