<svg width="122" height="40" viewBox="0 0 122 40" fill="none" xmlns="http://www.w3.org/2000/svg">
<g clip-path="url(#clip0_101_229)">
<path d="M45.7471 9.59715C45.7471 4.42659 49.996 1.07422 54.7298 1.07422C57.8628 1.07422 60.2671 2.61168 61.832 4.91623L57.827 7.43296C57.1991 6.45369 55.8782 5.85959 54.7623 5.85959C52.3938 5.85959 51.0013 7.57006 51.0013 9.59715C51.0013 11.6242 52.3938 13.4392 54.7623 13.4392C55.875 13.4392 57.1991 12.8451 57.827 11.8658L61.832 14.3825C60.2671 16.6871 57.8628 18.2245 54.7298 18.2245C49.996 18.2245 45.7471 14.7677 45.7471 9.59715Z" fill="#EB6100"/>
<path d="M64.7568 9.66555C64.7568 4.49499 68.9342 1.0708 73.5671 1.0708C78.2 1.0708 82.4099 4.49499 82.4099 9.66555C82.4099 14.8361 78.1967 18.2244 73.5671 18.2244C68.9375 18.2244 64.7568 14.8002 64.7568 9.66555ZM77.1524 9.66555C77.1524 7.42954 75.5517 5.85618 73.5671 5.85618C71.5825 5.85618 69.9818 7.42954 69.9818 9.66555C69.9818 11.9016 71.5825 13.439 73.5671 13.439C75.5517 13.439 77.1524 11.9016 77.1524 9.66555Z" fill="#EB6100"/>
<path d="M85.334 9.59715C85.334 4.42659 89.5829 1.07422 94.3167 1.07422C97.4497 1.07422 99.854 2.61168 101.419 4.91623L97.4139 7.43296C96.786 6.45369 95.4651 5.85959 94.3492 5.85959C91.9807 5.85959 90.5883 7.57006 90.5883 9.59715C90.5883 11.6242 91.9807 13.4392 94.3492 13.4392C95.4619 13.4392 96.786 12.8451 97.4139 11.8658L101.419 14.3825C99.854 16.6871 97.4497 18.2245 94.3167 18.2245C89.5829 18.2245 85.334 14.7677 85.334 9.59715Z" fill="#EB6100"/>
<path d="M104.348 9.66555C104.348 4.49499 108.525 1.0708 113.158 1.0708C117.791 1.0708 122.001 4.49499 122.001 9.66555C122.001 14.8361 117.788 18.2244 113.158 18.2244C108.528 18.2244 104.348 14.8002 104.348 9.66555ZM116.743 9.66555C116.743 7.42954 115.142 5.85618 113.158 5.85618C111.173 5.85618 109.573 7.42954 109.573 9.66555C109.573 11.9016 111.173 13.439 113.158 13.439C115.142 13.439 116.743 11.9016 116.743 9.66555Z" fill="#EB6100"/>
<path d="M71.3996 30.2922V38.9195H66.1291V31.1572C66.1291 28.9865 65.2409 28.0692 63.855 28.0692C62.3291 28.0692 61.2197 29.0974 61.2197 31.4346V38.9195H55.9491V31.1572C55.9491 28.9865 55.0902 28.0692 53.675 28.0692C52.1231 28.0692 51.0137 29.0974 51.0137 31.4346V38.9195H45.7432V23.8387H50.7632V25.4252C51.8986 24.2011 53.4798 23.5874 55.2562 23.5874C57.3091 23.5874 59.0562 24.3382 60.1103 25.954C61.301 24.4524 63.162 23.5874 65.3222 23.5874C68.8164 23.5874 71.3964 25.6178 71.3964 30.2922H71.3996Z" fill="#EB6100"/>
<path d="M90.9566 23.8389V38.9197H85.9365V37.4181C84.9377 38.6161 83.4672 39.171 81.4989 39.171C77.4223 39.171 74.1201 36.1647 74.1201 31.3532C74.1201 26.5417 77.4191 23.5908 81.4989 23.5908C83.246 23.5908 84.6612 24.0903 85.686 25.1479V23.8389H90.9566ZM85.7706 31.3532C85.7706 29.0715 84.3847 27.7919 82.6083 27.7919C80.8319 27.7919 79.446 29.0715 79.446 31.3532C79.446 33.6349 80.8319 34.97 82.6083 34.97C84.3847 34.97 85.7706 33.661 85.7706 31.3532Z" fill="#EB6100"/>
<path d="M104.018 38.3059C103.104 38.8902 101.744 39.1676 100.358 39.1676C96.503 39.1676 94.2842 37.2744 94.2842 33.4095V20.4146H99.5547V23.8387H102.968V28.3467H99.5547V33.354C99.5547 34.4671 100.166 35.0808 101.107 35.0808C101.689 35.0808 102.271 34.9143 102.714 34.6075L104.018 38.3091V38.3059Z" fill="#EB6100"/>
<path d="M118.146 33.8273L120.891 36.7194C119.476 38.332 117.368 39.1676 114.511 39.1676C109.16 39.1676 105.691 35.8577 105.691 31.3498C105.691 26.8418 109.241 23.5874 114.01 23.5874C118.337 23.5874 121.968 26.3424 121.998 31.2682L111.265 33.3279C111.847 34.552 113.012 35.1363 114.674 35.1363C116.145 35.1363 117.114 34.7185 118.142 33.8273H118.146ZM110.851 30.6284L116.951 29.4304C116.59 28.1769 115.51 27.3445 114.04 27.3445C112.237 27.3445 111.017 28.487 110.851 30.6284Z" fill="#EB6100"/>
<path d="M13.5311 13.031C11.8946 14.9733 8.99909 15.2181 7.0633 13.5762C5.12752 11.9343 4.88351 9.02909 6.51998 7.08686C8.15645 5.14464 11.052 4.89982 12.9878 6.54174C13.4042 6.89427 13.7393 7.30883 13.9963 7.7593L18.7008 5.03366C18.1379 4.05439 17.4092 3.14693 16.495 2.3733C12.2688 -1.21083 5.94087 -0.675498 2.36862 3.56801C-1.20689 7.81153 -0.673329 14.1605 3.55612 17.7446C7.78556 21.3287 14.1135 20.7967 17.6857 16.5532C18.0761 16.0896 18.4112 15.5967 18.704 15.0875L13.9996 12.3619C13.8662 12.5936 13.7133 12.8189 13.5344 13.0343L13.5311 13.031Z" fill="#FDD000"/>
<path d="M18.7044 5.03369L14 7.75933C14.8101 9.16622 14.8296 10.9256 14 12.3586L18.7044 15.0843C20.5133 11.9474 20.4711 8.10534 18.7044 5.03369Z" fill="#F6AB00"/>
<path d="M38.5113 5.03356C37.9485 4.05429 37.2197 3.14683 36.3055 2.3732C32.076 -1.21093 25.7481 -0.678864 22.1759 3.56465C18.6036 7.80816 19.1339 14.1571 23.3634 17.7412C27.5928 21.3254 33.9207 20.7933 37.493 16.5498C37.8834 16.0863 38.2185 15.5934 38.5113 15.0842C40.3202 11.9472 40.2779 8.10521 38.5113 5.03356ZM33.3416 13.0309C31.7051 14.9732 28.8096 15.218 26.8738 13.5761C24.938 11.9342 24.694 9.02899 26.3305 7.08676C27.967 5.14454 30.8625 4.89972 32.7983 6.54164C33.2147 6.89417 33.5498 7.30873 33.8069 7.7592C34.617 9.16609 34.6365 10.9255 33.8069 12.3585C33.6735 12.5903 33.5206 12.8155 33.3416 13.0309Z" fill="#F39800"/>
<path d="M26.3211 26.9692C27.9575 25.027 30.8531 24.7822 32.7889 26.4241C34.7246 28.066 34.9686 30.9712 33.3322 32.9134C31.6957 34.8556 28.8002 35.1005 26.8644 33.4586C26.4479 33.106 26.1128 32.6915 25.8558 32.241L21.1514 34.9666C21.7142 35.9459 22.443 36.8534 23.3572 37.627C27.5866 41.2111 33.9145 40.6791 37.4868 36.4355C41.059 32.192 40.5287 25.8431 36.2993 22.2589C32.0698 18.6748 25.7419 19.2069 22.1697 23.4504C21.7793 23.9139 21.4442 24.4068 21.1514 24.916L25.8558 27.6417C25.9892 27.4099 26.1421 27.1847 26.3211 26.9692Z" fill="#FDD000"/>
<path d="M21.1514 34.9666L25.8559 32.241C25.0458 30.8341 25.0262 29.0747 25.8559 27.6417L21.1514 24.916C19.3425 28.053 19.3848 31.895 21.1514 34.9666Z" fill="#F6AB00"/>
<path d="M16.4888 22.2555C12.2593 18.6714 5.93144 19.2035 2.35918 23.447C1.96877 23.9105 1.63367 24.4034 1.34086 24.9126C-0.468039 28.0496 -0.425744 31.8916 1.34086 34.9632C1.9037 35.9425 2.63247 36.8499 3.54668 37.6236C7.77613 41.2077 14.104 40.6756 17.6763 36.4321C21.2485 32.1886 20.7182 25.8397 16.4888 22.2555ZM13.5249 32.9133C11.8885 34.8555 8.99291 35.1003 7.05712 33.4584C6.64068 33.1059 6.30558 32.6913 6.04856 32.2408C5.23846 30.8339 5.21894 29.0745 6.04856 27.6415C6.18195 27.4098 6.33486 27.1845 6.5138 26.9691C8.15027 25.0269 11.0458 24.782 12.9816 26.424C14.9174 28.0659 15.1614 30.971 13.5249 32.9133Z" fill="#F39800"/>
</g>
<defs>
<clipPath id="clip0_101_229">
<rect width="122" height="40" fill="white"/>
</clipPath>
</defs>
</svg>
